<?xml version="1.0" standalone="no"?>
<!DOCTYPE svg PUBLIC "-//W3C//DTD SVG 20010904//EN"
 "http://www.w3.org/TR/2001/REC-SVG-20010904/DTD/svg10.dtd">
<svg version="1.0" xmlns="http://www.w3.org/2000/svg"
 width="300.000000pt" height="450.000000pt" viewBox="0 0 300.000000 450.000000"
 preserveAspectRatio="xMidYMid meet">
<metadata>
Created by potrace 1.10, written by Peter Selinger 2001-2011
</metadata>
<g transform="translate(0.000000,450.000000) scale(0.100000,-0.100000)"
fill="#000000" stroke="none">
<path d="M626 4485 c9 -24 44 -39 57 -26 8 8 8 11 -2 11 -7 0 -9 5 -5 12 5 8
0 9 -14 6 -12 -4 -22 -2 -22 3 0 5 -4 9 -10 9 -5 0 -7 -7 -4 -15z"/>
<path d="M1360 4489 c0 -5 -4 -8 -9 -5 -5 4 -7 -4 -3 -16 3 -14 1 -19 -6 -14
-8 5 -10 1 -5 -10 4 -11 3 -15 -4 -11 -7 5 -9 -1 -5 -15 4 -16 2 -19 -8 -13
-9 5 -11 4 -6 -4 9 -14 -2 -53 -14 -46 -4 3 -6 -5 -2 -17 3 -13 1 -19 -5 -15
-6 4 -11 1 -10 -6 1 -32 -4 -48 -13 -42 -6 3 -7 -1 -4 -9 3 -9 1 -16 -6 -16
-6 0 -9 -4 -6 -9 5 -8 -123 -353 -135 -365 -5 -5 -277 84 -589 193 -178 63
-204 72 -253 98 -15 8 -31 12 -36 8 -5 -3 -12 -1 -16 5 -4 6 -11 8 -16 5 -5
-4 -9 -1 -9 5 0 7 -6 10 -12 8 -7 -3 -19 2 -26 9 -8 8 -23 11 -33 8 -10 -4
-19 -2 -19 3 0 11 -60 35 -68 28 -2 -3 -12 2 -20 11 -11 11 -17 12 -20 4 -2
-7 -2 -14 0 -16 4 -5 669 -239 948 -335 85 -29 156 -54 158 -55 1 -1 -8 -26
-22 -56 -13 -30 -23 -56 -23 -59 1 -3 -7 -18 -16 -35 -9 -16 -37 -84 -63 -150
-25 -66 -50 -127 -55 -136 -9 -18 -55 -9 -549 112 l-245 60 -44 186 c-77 320
-89 368 -90 350 -1 -21 23 -132 78 -357 23 -91 41 -168 41 -171 0 -3 -24 0
-52 8 -29 7 -57 11 -63 9 -9 -3 28 -15 95 -30 23 -5 28 -17 66 -168 23 -90 40
-165 38 -167 -1 -2 -46 4 -100 13 -53 9 -98 15 -101 12 -2 -2 40 -12 94 -21
54 -9 103 -18 108 -20 6 -1 19 -36 28 -76 10 -41 20 -84 23 -97 6 -22 5 -22
-52 -17 l-59 4 59 -12 c64 -13 65 -14 79 -99 6 -37 5 -38 -26 -39 l-32 -2 35
-6 c19 -4 36 -6 38 -5 5 3 -18 124 -43 228 -14 54 -25 103 -25 108 0 5 21 7
48 4 34 -4 40 -3 22 3 -14 5 -36 9 -50 10 -25 1 -28 7 -68 168 -22 92 -40 168
-39 169 1 1 118 -26 260 -61 142 -35 313 -76 380 -91 67 -15 126 -30 130 -34
7 -6 -54 -193 -82 -255 -5 -11 -21 -53 -36 -92 -25 -69 -29 -73 -58 -74 -25
-1 -27 -3 -9 -6 17 -3 22 -10 19 -21 -22 -70 -60 -168 -69 -179 -6 -8 -7 -13
0 -13 5 0 17 18 26 41 14 33 19 39 31 29 8 -6 29 -14 47 -16 18 -3 56 -9 83
-14 28 -5 57 -9 65 -9 112 -1 121 -3 108 -19 -11 -13 -10 -14 9 -4 12 7 25 17
28 22 3 6 17 10 31 10 13 0 23 3 22 8 -4 11 28 53 35 45 4 -3 7 -1 7 5 0 5 3
19 6 29 4 10 -16 -4 -44 -31 l-51 -49 -143 16 c-79 10 -158 17 -175 17 -21 0
-33 5 -33 14 0 27 42 114 54 110 6 -2 54 -8 106 -13 52 -5 146 -19 209 -31 63
-11 121 -19 130 -17 9 3 5 5 -9 6 -22 1 -18 7 44 70 l68 68 116 -24 c64 -13
124 -22 132 -21 8 2 -40 14 -108 27 -67 13 -122 26 -122 30 0 4 44 51 98 104
l99 97 73 -21 c40 -11 77 -18 82 -17 6 2 -22 12 -61 22 -39 10 -71 20 -71 22
0 6 330 329 339 332 5 1 64 -18 132 -43 121 -46 381 -139 407 -147 12 -3 -346
-220 -413 -249 -16 -8 -36 -19 -42 -25 -7 -7 -28 -22 -48 -34 -19 -12 -35 -24
-35 -27 0 -3 10 1 23 9 94 60 89 58 148 43 29 -8 61 -14 69 -14 8 1 -14 8 -49
18 l-64 17 189 109 c104 60 201 117 215 127 26 17 28 17 215 -48 192 -66 231
-84 181 -84 -15 0 -28 1 -29 2 -2 1 -14 -5 -28 -13 -14 -8 -29 -14 -35 -15
-20 -1 -296 -132 -305 -144 -3 -4 -38 -22 -78 -40 -40 -18 -71 -35 -69 -37 4
-3 71 23 132 52 78 37 183 81 319 137 149 60 155 61 230 42 20 -5 26 -2 26 11
0 9 -5 13 -10 10 -6 -3 -20 -3 -32 1 -20 6 -20 8 13 25 42 22 35 24 -22 4 -24
-9 -57 -13 -74 -10 -48 10 -384 129 -380 135 2 3 116 73 254 155 138 83 251
153 251 157 0 4 -107 -57 -237 -136 -131 -79 -252 -150 -268 -159 -30 -15 -36
-13 -255 68 -124 45 -246 91 -272 102 l-47 18 242 236 c133 130 292 284 354
343 l112 108 173 -114 c206 -136 198 -131 198 -121 0 4 -59 46 -130 91 -72 46
-128 88 -125 92 3 5 0 12 -6 16 -8 5 -9 3 -4 -6 5 -8 3 -11 -6 -8 -8 3 -14 10
-14 15 0 6 -4 15 -9 20 -5 5 -6 2 -1 -6 5 -9 3 -12 -6 -9 -8 3 -14 10 -14 16
0 6 -7 17 -15 24 -12 11 -12 11 -1 -4 15 -20 5 -23 -19 -8 -12 8 4 29 86 110
55 55 97 100 93 100 -4 0 -11 -5 -14 -10 -4 -6 -10 -8 -14 -6 -4 3 -43 -31
-87 -75 -44 -44 -85 -77 -92 -74 -7 3 -10 0 -7 -5 10 -16 -5 -12 -41 11 -19
11 -32 24 -29 29 7 11 -43 42 -55 35 -13 -8 -52 14 -45 25 3 5 0 12 -6 16 -8
4 -9 3 -5 -4 12 -20 -3 -14 -65 25 -33 20 -62 34 -64 31 -3 -3 68 -49 157
-103 89 -55 155 -101 147 -103 -8 -2 -68 -59 -134 -126 -66 -66 -220 -218
-342 -338 l-222 -216 -93 28 c-51 15 -113 35 -138 43 -114 39 -247 88 -267 99
-12 6 -31 8 -42 5 -12 -3 -19 -1 -16 4 3 4 -7 11 -22 15 -22 4 -190 54 -200
59 -1 0 29 82 68 180 157 403 176 455 168 455 -5 0 -9 -5 -9 -11z m-164 -665
c111 -42 217 -74 244 -74 15 0 30 -4 35 -8 16 -14 162 -67 293 -108 67 -20
122 -41 122 -46 0 -4 -4 -8 -9 -8 -5 0 -49 -40 -97 -88 -49 -49 -124 -121
-166 -161 l-77 -74 -88 19 c-71 15 -83 20 -63 26 16 5 7 6 -25 3 -37 -3 -45
-2 -30 5 15 7 10 8 -20 4 -32 -4 -37 -3 -25 6 12 9 8 11 -18 6 -23 -4 -31 -2
-26 6 5 7 -1 9 -20 6 -14 -3 -26 -2 -26 2 0 7 -210 50 -243 50 -20 0 -20 0 -3
36 7 16 48 118 91 227 44 108 80 197 81 197 1 0 33 -12 70 -26z m-101 -483
c66 -16 165 -41 220 -55 55 -14 118 -26 140 -26 79 -1 77 -11 -25 -114 -67
-69 -101 -96 -119 -97 -19 -1 -21 -3 -7 -6 15 -4 8 -16 -45 -69 -35 -35 -71
-64 -81 -64 -10 0 -35 6 -55 14 -131 46 -206 59 -288 46 -28 -4 -51 -7 -53 -5
-1 1 10 37 25 79 l28 78 55 -6 55 -5 -51 12 -51 12 46 123 c40 110 47 123 65
119 12 -3 75 -19 141 -36z"/>
<path d="M1152 3605 c-17 -36 -30 -65 -27 -65 7 0 67 121 63 126 -2 2 -18 -26
-36 -61z"/>
<path d="M1085 3470 c-14 -27 -22 -50 -18 -50 8 0 55 100 48 100 -3 0 -16 -22
-30 -50z"/>
<path d="M1540 3434 c-64 -65 -95 -81 -119 -60 -9 7 -27 17 -41 21 -14 3 -1
-8 29 -25 44 -26 56 -29 65 -18 7 7 39 41 71 76 72 77 69 82 -5 6z"/>
<path d="M1624 3415 c-25 -25 -49 -45 -54 -45 -4 0 -11 -7 -14 -16 -3 -9 -12
-14 -19 -11 -7 3 -21 -1 -31 -8 -17 -13 -16 -14 5 -25 20 -11 26 -8 70 41 27
30 49 57 49 62 0 4 7 7 15 7 8 0 19 9 25 20 16 31 4 24 -46 -25z"/>
<path d="M1 3530 c-2 -44 59 -198 85 -215 27 -17 32 -10 10 14 -11 13 -60 127
-89 211 -3 9 -6 5 -6 -10z"/>
<path d="M1721 3206 c6 -7 206 -56 221 -55 13 1 -198 58 -216 59 -5 0 -7 -2
-5 -4z"/>
<path d="M2853 3042 c-72 -26 -130 -50 -127 -53 2 -4 37 5 78 21 41 15 102 35
135 46 34 10 61 21 61 26 0 11 2 11 -147 -40z"/>
<path d="M1822 3015 c-40 -25 -80 -45 -90 -45 -10 0 -19 -7 -19 -14 0 -11 5
-12 17 -6 9 5 33 5 56 0 21 -5 46 -9 54 -9 8 1 -7 7 -34 13 l-49 12 71 43 c62
37 81 51 69 51 -1 0 -35 -20 -75 -45z"/>
<path d="M2860 3008 l-125 -41 -87 21 c-48 12 -95 19 -104 15 -11 -4 -15 -2
-11 4 9 14 -31 24 -63 17 -20 -5 -22 -3 -10 5 13 9 13 11 -2 11 -22 0 -23 -13
-3 -30 8 -7 15 -10 15 -7 0 3 35 -5 78 -19 42 -13 91 -24 107 -24 17 0 25 -4
18 -8 -6 -4 28 -7 75 -8 66 0 79 2 55 8 -35 9 -45 21 -15 17 16 -2 33 2 160
38 30 9 52 22 52 29 0 18 7 19 -140 -28z"/>
<path d="M2075 2910 c-22 -4 -33 -8 -25 -9 13 -1 13 -3 0 -12 -12 -9 -11 -9 5
-3 11 4 36 7 55 7 19 -1 27 1 17 4 -9 2 -15 9 -12 14 4 5 5 8 3 8 -2 -1 -21
-5 -43 -9z"/>
<path d="M2852 2850 c-126 -35 -141 -41 -82 -35 25 2 79 7 120 10 96 8 110 12
110 36 0 25 -21 24 -148 -11z"/>
<path d="M1959 2850 c-9 -5 -47 -14 -83 -19 -64 -9 -132 -42 -177 -86 -9 -8
-23 -15 -33 -15 -9 0 -14 -5 -11 -10 4 -6 11 -8 16 -4 6 3 18 -1 27 -9 9 -8
49 -22 88 -31 116 -26 257 3 334 68 l28 23 -89 24 c-49 13 -89 27 -89 31 0 3
-10 4 -22 2 -16 -4 -12 1 12 15 19 11 31 20 25 20 -5 0 -17 -4 -26 -9z m17
-64 c22 -7 64 -17 94 -21 l55 -8 -100 -34 -100 -33 -110 15 c-60 8 -114 15
-120 15 -5 0 26 18 70 39 88 43 145 51 211 27z"/>
<path d="M2553 2748 c-29 -5 -53 -14 -53 -19 0 -5 -19 -9 -42 -10 -33 0 -38
-2 -23 -9 15 -7 16 -9 4 -9 -9 -1 -32 -12 -52 -25 -19 -13 -43 -26 -54 -29
-17 -5 -17 -5 0 -6 11 0 32 -11 49 -22 27 -20 38 -21 131 -16 65 4 122 13 156
26 93 35 82 40 -31 15 -72 -16 -224 -20 -263 -7 -15 4 0 12 55 29 41 13 81 24
89 24 8 0 19 8 26 17 9 12 27 18 59 18 36 0 46 3 44 15 -4 19 -28 21 -95 8z"/>
<path d="M0 2726 c0 -5 7 -18 17 -28 15 -17 15 -18 0 -18 -12 0 -17 -9 -17
-29 0 -24 6 -31 31 -40 18 -6 41 -11 53 -11 12 0 35 -9 51 -20 17 -11 46 -20
65 -20 l35 1 -26 14 c-15 8 -41 17 -60 20 -18 3 -40 11 -48 18 -12 10 -6 13
30 18 43 6 42 6 -16 8 -82 2 -109 10 -94 27 6 8 15 12 19 9 5 -3 11 -1 15 5 3
5 1 10 -5 10 -7 0 -20 10 -31 23 -10 12 -18 18 -19 13z"/>
<path d="M719 2716 c-2 -3 -16 -6 -29 -8 -56 -8 -84 -56 -53 -90 15 -17 14
-18 -18 -19 -28 0 -30 -2 -14 -9 18 -7 17 -8 -10 -14 -16 -4 -39 -12 -49 -18
-12 -6 -73 -8 -165 -5 -99 3 -122 3 -71 -3 109 -11 284 -12 296 -1 13 13 76
15 152 6 51 -6 60 -10 51 -21 -9 -12 -4 -14 32 -13 34 0 39 2 24 9 -11 5 -15
9 -10 10 6 0 -3 8 -20 18 l-30 16 30 6 c62 12 90 31 114 73 13 23 18 37 12 31
-8 -7 -32 -4 -82 13 -64 20 -148 30 -160 19z m154 -42 c37 -3 67 -8 67 -11 0
-3 -10 -13 -22 -24 -21 -17 -34 -18 -148 -13 -69 4 -126 8 -128 9 -1 1 2 13 8
26 10 22 16 24 83 22 40 -1 102 -5 140 -9z"/>
<path d="M2629 2695 c18 -8 47 -15 64 -15 50 0 18 18 -43 25 l-55 6 34 -16z"/>
<path d="M2875 2680 c-17 -7 -16 -9 10 -9 17 0 37 4 45 9 12 8 10 10 -10 9
-14 0 -34 -4 -45 -9z"/>
<path d="M1511 2661 c-7 -5 -32 -9 -54 -9 -22 -1 -45 -6 -50 -11 -6 -6 -20
-11 -31 -11 -10 0 -16 -3 -13 -7 11 -10 -14 -33 -37 -34 -20 -1 -20 -2 -1 -6
11 -3 26 -10 34 -16 7 -6 34 -15 60 -19 26 -4 12 -4 -34 -1 -143 11 -187 8
-254 -18 -82 -30 -52 -38 55 -14 41 9 82 14 91 11 35 -11 128 -15 113 -6 -14
9 5 11 167 14 15 1 41 13 57 29 17 15 34 27 38 27 5 0 8 5 8 10 0 6 -3 9 -7 8
-5 -1 -17 3 -28 9 -11 6 -37 14 -58 18 -39 8 -48 21 -19 28 14 4 14 5 -3 6
-11 0 -26 -3 -34 -8z m69 -55 l65 -13 -55 -15 c-42 -12 -73 -14 -130 -7 -41 4
-84 8 -95 9 -14 1 -8 7 20 20 47 22 105 24 195 6z"/>
<path d="M2875 2649 c3 -3 -10 -10 -28 -14 -22 -5 -26 -9 -14 -12 9 -2 17 -9
17 -14 0 -14 43 -10 64 6 11 8 35 15 55 15 19 0 32 2 29 5 -8 8 -127 22 -123
14z"/>
<path d="M200 2611 c55 -14 130 -21 130 -12 0 4 -6 8 -12 8 -7 0 -44 3 -83 6
-49 5 -60 4 -35 -2z"/>
<path d="M2006 2611 c-3 -4 -18 -11 -33 -15 -16 -3 -43 -19 -62 -36 l-35 -30
70 26 c58 21 74 24 105 15 20 -6 54 -11 75 -11 38 1 39 1 14 14 -14 7 -43 17
-64 20 -29 6 -36 10 -25 17 10 6 7 9 -13 9 -15 0 -29 -4 -32 -9z"/>
<path d="M2425 2571 l30 -7 -40 -8 c-63 -13 -102 -24 -82 -25 11 -1 15 -6 11
-12 -5 -9 4 -9 32 -3 21 5 72 8 112 7 81 -2 97 12 25 23 -46 8 -46 8 -18 15
21 5 24 7 9 8 -12 0 -41 3 -65 5 -33 3 -36 2 -14 -3z"/>
<path d="M2864 2565 c11 -8 32 -15 47 -15 14 0 41 -3 58 -6 23 -5 31 -3 31 8
0 11 -13 15 -47 16 -27 1 -61 4 -78 7 -28 6 -29 5 -11 -10z"/>
<path d="M0 2541 c0 -20 172 -29 230 -12 19 6 10 9 -39 14 -89 10 -191 9 -191
-2z"/>
<path d="M2090 2530 c-19 -4 -70 -5 -113 -2 -64 4 -77 3 -72 -9 4 -10 19 -14
48 -12 l42 3 -35 -11 c-30 -10 -32 -12 -15 -19 20 -7 20 -7 0 -13 -11 -3 9 -4
45 -1 91 6 108 6 165 -3 l50 -7 -35 -7 -35 -6 43 -2 c27 0 41 3 37 9 -4 6 8
10 29 10 19 0 37 4 41 9 3 6 -18 8 -52 5 -37 -3 -51 -1 -39 4 18 8 16 10 -14
20 -18 7 -47 12 -64 13 l-31 1 33 8 c70 16 46 25 -28 10z"/>
<path d="M1650 2522 c-45 -3 -70 -16 -70 -34 0 -6 17 -7 43 -3 23 4 78 6 122
6 63 -1 77 1 67 11 -18 18 -83 26 -162 20z"/>
<path d="M2758 2520 c-26 -5 -55 -16 -65 -25 -16 -16 -15 -17 18 -9 19 5 93 8
164 7 74 -1 119 2 105 6 -23 7 -23 8 -5 13 11 3 3 3 -17 1 -24 -3 -38 -1 -38
6 0 13 -90 13 -162 1z"/>
<path d="M600 2505 c56 -12 160 -19 225 -15 16 0 17 2 5 9 -8 5 -78 11 -155
14 -137 6 -138 5 -75 -8z"/>
<path d="M918 2513 c18 -2 45 -2 60 0 15 2 0 4 -33 4 -33 0 -45 -2 -27 -4z"/>
<path d="M0 2496 c0 -20 42 -25 289 -31 124 -4 228 -8 233 -11 4 -3 8 0 8 5 0
6 5 11 10 11 10 0 7 -104 -5 -170 -2 -14 -7 -88 -10 -164 -3 -77 -9 -144 -12
-149 -4 -6 -1 -7 6 -2 9 5 12 2 9 -11 -3 -17 -15 -19 -116 -22 -72 -2 -112 1
-112 8 0 5 8 10 18 11 11 0 12 2 4 6 -7 3 -19 -1 -28 -8 -20 -16 -220 -27
-210 -10 4 6 2 11 -3 11 -6 0 -11 -4 -11 -9 0 -5 -16 -15 -35 -21 -34 -11 -48
-30 -22 -30 8 0 7 -4 -3 -11 -12 -8 -10 -9 10 -7 17 2 26 10 28 26 3 16 10 22
28 22 21 0 24 -5 24 -34 0 -26 -5 -35 -22 -40 -36 -9 -50 -7 -42 7 6 9 5 9 -8
0 -8 -7 -18 -10 -21 -6 -4 3 -7 1 -7 -5 0 -8 26 -11 88 -10 48 1 105 -1 127
-5 l40 -7 -39 10 c-52 14 -62 25 -14 16 l37 -7 3 43 c3 39 6 43 31 46 23 3 27
0 27 -20 0 -21 4 -24 35 -20 19 2 35 8 35 13 0 11 23 7 31 -5 4 -5 13 -5 20 0
7 4 22 8 33 9 12 1 31 5 44 9 21 7 22 5 22 -59 l0 -67 -27 6 c-20 5 -24 4 -14
-3 11 -7 -2 -13 -47 -22 l-62 -13 0 -45 0 -44 -99 6 -99 6 -4 -59 -3 -60 60 2
c33 0 46 3 29 5 -38 5 -68 48 -44 64 8 5 32 7 52 3 23 -3 56 1 87 11 47 15 49
18 55 59 l7 44 72 25 c39 14 73 24 75 22 10 -10 -11 -85 -23 -85 -8 0 -18 -6
-22 -13 -12 -19 -129 -67 -164 -67 -16 0 -29 -4 -29 -10 0 -18 34 -10 150 35
l115 45 160 1 c88 1 189 5 225 9 36 4 -40 5 -168 2 l-233 -5 3 104 3 104 33 3
c17 2 32 0 32 -5 0 -4 28 -8 63 -9 34 0 96 -1 137 -2 41 -1 138 2 215 6 145 8
185 3 185 -23 0 -8 5 -15 10 -15 16 0 11 19 -10 37 -39 34 -24 38 145 39 114
1 170 6 180 14 13 11 15 3 15 -63 l0 -76 -32 -4 -33 -4 33 -1 c25 -2 32 -6 32
-22 0 -20 -7 -23 -125 -39 -102 -14 -7 -11 125 4 145 17 295 39 360 54 32 7
80 7 162 -1 l118 -12 0 -43 c0 -31 -4 -43 -14 -43 -8 0 -21 -6 -28 -14 -8 -7
-59 -21 -114 -29 -145 -23 -166 -25 -155 -14 13 13 166 46 217 46 38 1 41 4
52 37 l11 35 -67 -7 c-86 -9 -111 -18 -142 -55 -20 -23 -37 -31 -85 -39 -119
-18 -169 -30 -174 -39 -7 -11 -155 -30 -281 -36 l-85 -5 45 14 c68 22 212 45
241 39 22 -4 27 -1 31 22 5 24 3 26 -21 21 -66 -14 -160 -26 -199 -26 -36 0
-44 -4 -54 -25 -9 -20 -19 -25 -47 -26 -40 -1 -94 -16 -71 -19 28 -4 -74 -18
-187 -26 -82 -5 -113 -4 -113 4 0 12 43 26 73 24 9 0 15 3 12 9 -4 5 -2 9 4 9
5 0 12 -4 16 -9 8 -13 44 -9 39 4 -3 6 6 11 18 12 18 2 20 0 8 -8 -11 -8 3 -9
49 -6 64 5 81 15 81 50 0 21 -30 22 -158 3 -91 -14 -138 -33 -149 -62 -4 -10
-23 -14 -67 -15 -33 0 -79 -4 -101 -8 l-40 -9 39 -1 c75 -2 30 -10 -94 -16
-211 -11 -317 -13 -517 -14 -122 -1 -193 -5 -193 -11 0 -13 170 -13 535 0 457
16 1023 60 1309 101 39 5 103 14 141 19 312 41 630 104 618 123 -3 5 4 6 17 2
13 -4 20 -3 17 2 -7 11 59 37 73 28 5 -3 31 3 57 15 41 18 61 21 143 16 73 -3
83 -3 40 4 -95 14 -144 11 -189 -11 -29 -14 -47 -17 -53 -11 -7 7 -24 6 -50
-4 -48 -17 -94 -18 -103 -3 -5 7 -13 4 -26 -7 -17 -15 -19 -15 -25 -1 -3 9 3
36 14 61 17 38 18 45 5 50 -35 14 -53 5 -74 -36 -27 -54 -24 -51 -48 -43 -14
4 -21 15 -21 31 0 17 -5 24 -20 24 -15 0 -20 7 -20 24 0 14 4 28 10 31 20 12
9 25 -20 25 -19 0 -30 -5 -30 -14 0 -24 -20 -30 -34 -10 -8 10 -20 15 -29 11
-17 -6 -27 11 -27 49 0 14 -4 22 -10 19 -5 -3 -10 -17 -10 -31 0 -14 -4 -23
-10 -19 -5 3 -6 13 -3 22 4 9 -1 21 -11 28 -14 11 -8 13 36 20 107 15 120 15
115 1 -6 -15 60 -26 184 -31 36 -2 81 -10 101 -18 20 -9 47 -13 60 -10 16 3
19 2 10 -4 -9 -7 -5 -10 15 -10 15 0 41 -3 56 -6 22 -5 27 -3 23 8 -3 8 -1 17
4 20 6 4 10 15 10 26 0 27 -34 24 -62 -5 -28 -30 -83 -26 -94 6 -4 15 -12 19
-30 15 -13 -2 -24 0 -24 4 0 15 -57 10 -70 -7 -13 -15 -21 -15 -127 3 -31 5
-33 7 -33 49 0 32 -4 44 -15 44 -8 0 -15 -8 -15 -18 0 -10 -3 -21 -6 -25 -10
-10 -85 35 -96 57 -5 12 -17 22 -26 23 -10 1 -22 2 -27 3 -23 5 -55 -1 -55
-10 0 -6 9 -6 25 0 28 11 43 -6 31 -35 -7 -18 -42 -20 -49 -2 -3 7 -6 5 -6 -5
-1 -14 7 -18 34 -18 29 0 36 4 41 25 3 14 10 25 14 25 5 0 6 -8 3 -19 -3 -10
0 -22 6 -25 6 -4 11 -1 11 6 0 21 20 -14 20 -36 0 -12 -5 -16 -15 -13 -8 4
-17 2 -20 -3 -4 -6 -15 -10 -25 -10 -22 0 -39 -22 -22 -28 15 -5 16 -38 2 -47
-5 -3 -10 2 -10 12 0 14 -8 19 -31 21 -21 2 -28 -1 -23 -9 5 -8 3 -9 -5 -5 -7
5 -10 14 -7 22 3 8 0 11 -10 7 -7 -3 -14 -9 -14 -14 0 -5 -5 -9 -11 -9 -5 0
-7 4 -4 10 3 5 0 7 -9 4 -28 -11 -56 14 -56 50 0 20 -6 36 -14 39 -10 4 -12 0
-9 -14 3 -10 2 -30 -1 -43 -5 -22 -11 -25 -44 -23 -34 2 -38 -1 -47 -31 -9
-31 -12 -33 -50 -30 -38 3 -40 5 -46 43 -6 38 -6 38 -8 8 -1 -37 -7 -40 -33
-16 -17 15 -18 15 -18 0 0 -10 5 -17 10 -17 6 0 10 -7 10 -15 0 -18 -17 -20
-22 -4 -3 9 -10 8 -25 -1 -12 -8 -19 -19 -16 -26 6 -15 -13 -28 -22 -14 -4 6
-11 8 -16 4 -6 -4 -9 13 -8 43 1 26 1 126 0 221 -3 195 2 212 59 204 16 -2 30
-8 30 -13 0 -5 11 -9 25 -9 24 0 25 -2 25 -71 0 -71 0 -71 -25 -67 -14 3 -25
1 -25 -3 0 -5 60 -8 133 -8 72 1 119 4 102 6 -16 3 -33 8 -37 12 -4 3 -37 4
-73 1 l-65 -5 0 73 c0 66 2 73 17 68 9 -4 69 -9 132 -12 63 -2 121 -10 128
-16 8 -6 13 -7 13 -1 0 6 40 10 103 9 l102 -1 3 -87 c2 -78 0 -90 -19 -109
l-21 -21 21 7 c12 4 21 2 21 -4 0 -6 5 -11 12 -11 8 0 9 31 5 113 l-7 112 120
1 c100 1 125 5 153 22 l34 20 6 -112 c4 -61 7 -139 7 -173 0 -35 4 -63 9 -63
19 0 20 27 6 249 l-6 94 73 -7 c39 -3 73 -8 75 -9 1 -2 5 -67 8 -144 5 -120 3
-141 -10 -147 -8 -3 -14 -13 -14 -23 1 -17 2 -17 6 0 4 14 13 16 56 13 29 -2
40 -2 25 1 -33 5 -35 13 -43 202 -6 121 -5 133 9 122 13 -11 28 -11 78 -1 35
7 80 15 101 17 24 3 37 10 37 20 0 12 -9 13 -42 8 -31 -4 -39 -3 -28 4 12 9
11 11 -8 11 -14 0 -21 -4 -16 -11 4 -7 -10 -10 -42 -8 -74 4 -126 0 -120 -10
6 -10 -149 -26 -163 -17 -5 4 -12 2 -15 -3 -3 -4 -74 -8 -158 -6 -84 1 -144 0
-133 -3 11 -2 25 -9 30 -14 7 -7 -80 -9 -276 -5 -286 7 -390 17 -278 30 30 3
73 5 97 4 23 -1 42 1 42 5 0 9 -35 17 -65 15 -11 0 -76 2 -145 6 -96 4 -112 4
-70 -4 30 -5 60 -11 65 -14 11 -5 -311 3 -365 10 -19 2 -105 7 -190 10 -85 3
-238 10 -340 15 -385 21 -744 40 -762 40 -10 0 -18 -6 -18 -14z m650 -44 c-70
-10 -25 -20 122 -26 90 -3 213 -9 273 -11 102 -5 108 -4 75 9 l-35 14 38 1 39
1 -4 -229 -3 -228 -180 -7 c-99 -3 -231 -9 -294 -13 l-114 -6 8 76 7 77 -26 0
c-14 0 -26 5 -26 10 0 6 11 10 23 10 23 0 24 3 30 113 4 61 7 135 7 164 0 56
6 62 54 54 29 -5 29 -6 6 -9z m715 -34 c7 -6 -6 -8 -35 -4 -25 3 -58 2 -75 -2
-30 -9 -29 -9 15 -15 25 -4 80 -9 123 -12 43 -3 84 -7 90 -11 7 -3 3 2 -7 10
-11 9 -32 16 -48 16 -15 0 -28 5 -28 10 0 6 37 10 90 10 l90 0 0 -193 c0 -135
4 -197 12 -205 6 -6 10 -14 7 -16 -2 -2 -95 -7 -206 -11 l-203 -8 0 114 c0 63
3 164 6 225 l7 111 76 -5 c42 -2 81 -9 86 -14z m605 -406 c-24 -5 -14 -7 135
-36 59 -11 197 -60 226 -79 19 -13 35 -33 37 -45 3 -18 10 -22 41 -22 33 0 38
4 49 35 9 23 18 32 27 29 10 -4 12 -11 6 -22 -4 -10 -7 -27 -6 -39 1 -21 -2
-22 -64 -20 -65 2 -66 2 -71 32 l-5 30 -105 11 c-67 6 -99 13 -87 18 21 10 23
46 1 46 -8 0 -13 -4 -9 -9 3 -5 -7 -19 -21 -30 -15 -12 -25 -23 -23 -26 3 -2
51 -7 107 -11 120 -8 132 -16 132 -80 0 -39 3 -45 18 -40 9 3 41 10 71 16 30
5 72 15 94 21 26 7 43 7 50 0 10 -10 -14 -18 -133 -45 -107 -23 -152 -28 -144
-15 5 8 -2 10 -25 7 l-31 -5 0 48 0 47 -75 7 c-67 6 -75 9 -75 27 0 20 -1 20
-18 5 -13 -12 -37 -17 -76 -17 l-58 0 4 33 c3 17 8 40 12 49 12 27 -46 7 -60
-20 -17 -34 -27 -40 -19 -12 8 25 7 25 -13 7 -11 -10 -23 -29 -26 -42 -4 -14
-15 -29 -26 -35 -18 -10 -20 -8 -20 18 0 26 -4 30 -37 36 -21 3 -56 6 -78 6
l-40 0 24 19 c13 10 21 23 17 30 -5 7 3 11 22 11 16 0 44 3 61 6 27 6 31 4 31
-14 0 -12 5 -24 10 -27 6 -3 10 1 10 11 0 12 7 15 30 12 29 -4 30 -3 30 37 l0
41 63 0 c34 1 51 -1 37 -4z m-1753 -108 c3 -18 2 -18 -6 1 -9 19 -12 18 -15
-7 -1 -7 -7 -12 -14 -10 -7 1 -12 -2 -12 -8 0 -5 -7 -10 -16 -10 -11 0 -15 6
-11 20 3 11 1 20 -3 20 -5 0 -11 -10 -13 -22 -4 -20 -4 -20 -6 4 -1 24 3 27
37 31 51 5 57 3 59 -19z m1491 -30 c61 -6 63 -8 60 -33 -3 -25 -7 -26 -81 -35
-43 -5 -80 -7 -82 -4 -2 2 -7 23 -11 47 l-7 44 29 -6 c16 -3 57 -9 92 -13z
m727 -74 c4 -6 -5 -10 -19 -10 -14 0 -29 0 -33 -1 -4 0 -9 4 -11 10 -5 14 55
15 63 1z"/>
<path d="M660 2215 c0 -53 3 -63 15 -59 8 4 15 1 15 -5 0 -6 -7 -11 -15 -11
-9 0 -15 -9 -15 -25 0 -16 6 -25 15 -25 8 0 15 -7 15 -15 0 -18 -30 -20 -31
-2 -1 6 -5 -6 -9 -28 -4 -22 -6 -42 -4 -44 7 -8 224 -12 224 -4 0 5 10 9 23 9
109 1 179 5 174 10 -7 7 -96 7 -302 -1 -76 -3 -113 -1 -100 5 14 6 16 9 5 10
-10 1 -9 4 5 10 28 12 105 12 105 0 0 -6 42 -10 105 -10 58 0 105 4 105 8 0 5
25 8 55 7 l55 -1 0 118 0 118 -195 0 c-168 0 -194 -2 -189 -15 5 -11 0 -14
-20 -13 -14 1 -26 6 -26 11 0 5 7 7 15 3 8 -3 15 -1 15 4 0 6 -9 10 -20 10
-18 0 -20 -7 -20 -65z m317 -57 l-2 -113 -87 -1 -88 -1 0 113 0 114 89 0 90 0
-2 -112z m91 90 c-2 -14 2 -22 10 -20 6 1 12 -2 12 -8 0 -5 -9 -10 -20 -10
-16 0 -20 7 -20 30 0 17 5 30 11 30 5 0 9 -10 7 -22z m-348 -23 c0 -9 -9 -15
-25 -15 -14 0 -25 5 -25 11 0 6 7 9 15 5 8 -3 15 -1 15 4 0 6 5 10 10 10 6 0
10 -7 10 -15z m30 -41 c-16 -19 -30 -18 -30 2 0 10 6 14 15 10 11 -4 15 2 16
22 2 24 2 25 6 4 3 -13 -1 -30 -7 -38z m280 19 c0 -16 7 -37 15 -47 8 -11 15
-33 15 -49 0 -24 -4 -28 -22 -25 -21 3 -23 9 -26 76 -2 45 1 72 8 72 5 0 10
-12 10 -27z m-270 -57 c0 -55 -34 -79 -46 -32 -7 28 2 49 17 41 5 -4 9 -1 9 4
0 6 5 11 10 11 6 0 10 -11 10 -24z"/>
<path d="M827 2193 c-3 -5 16 -7 41 -5 80 5 90 9 25 11 -34 0 -64 -2 -66 -6z"/>
<path d="M894 2155 c-4 -8 -9 -13 -13 -11 -3 2 -15 -2 -26 -10 -22 -16 -3 -19
27 -3 26 14 33 6 13 -15 -9 -9 -15 -16 -13 -17 31 -7 36 -5 36 17 0 14 -5 27
-11 31 -6 4 -3 10 9 14 17 7 17 8 1 8 -10 1 -20 -6 -23 -14z"/>
<path d="M1423 2283 c26 -2 68 -2 95 0 26 2 4 3 -48 3 -52 0 -74 -1 -47 -3z"/>
<path d="M2430 2491 c-47 -3 -96 -12 -110 -20 -14 -8 -38 -17 -55 -21 -16 -4
45 -7 138 -7 92 0 167 3 167 7 0 4 -10 12 -22 18 -22 10 -22 11 7 11 23 1 27
4 15 11 -8 5 -24 9 -35 8 -11 -1 -58 -4 -105 -7z"/>
<path d="M1127 2479 c12 -4 50 -11 85 -14 35 -3 87 -8 116 -11 36 -4 52 -2 52
6 0 7 -8 10 -20 7 -10 -3 -20 -1 -22 3 -2 4 -55 10 -118 12 -65 3 -105 2 -93
-3z"/>
<path d="M1408 2483 c18 -2 45 -2 60 0 15 2 0 4 -33 4 -33 0 -45 -2 -27 -4z"/>
<path d="M1825 2481 c-6 -5 -23 -11 -40 -14 -16 -2 -5 -4 25 -4 30 -1 47 1 37
4 -9 2 -15 9 -12 14 8 12 2 12 -10 0z"/>
<path d="M0 2440 c0 -6 29 -10 68 -10 61 0 243 -11 395 -25 43 -3 58 -2 55 7
-3 7 -22 13 -44 15 -99 6 -422 23 -446 23 -16 0 -28 -4 -28 -10z"/>
<path d="M1940 2432 c0 -6 8 -11 18 -11 9 -1 53 -5 97 -10 44 -5 84 -5 89 0 5
4 17 4 28 -2 14 -7 18 -6 18 6 0 12 -15 15 -79 15 -43 0 -99 3 -125 6 -30 5
-46 3 -46 -4z"/>
<path d="M37 2313 c24 -2 62 -2 85 0 24 2 5 4 -42 4 -47 0 -66 -2 -43 -4z"/>
<path d="M407 2303 c18 -2 50 -2 70 0 21 2 7 4 -32 4 -38 0 -55 -2 -38 -4z"/>
<path d="M1702 2125 c-2 -48 2 -75 8 -75 6 0 9 -4 5 -9 -3 -5 0 -13 6 -17 9
-5 10 0 6 17 -4 13 -7 54 -7 92 0 92 -16 85 -18 -8z"/>
<path d="M1737 2192 c6 -4 13 -28 16 -52 l4 -45 1 53 c2 44 -1 52 -15 52 -12
0 -14 -3 -6 -8z"/>
<path d="M1770 2190 c0 -12 119 -10 127 2 2 5 -25 8 -61 8 -39 0 -66 -4 -66
-10z"/>
<path d="M1948 2170 c2 -16 8 -30 13 -30 5 0 8 14 7 30 -1 17 -7 30 -13 30 -7
0 -10 -12 -7 -30z"/>
<path d="M2053 2080 c1 -14 8 -20 23 -20 12 0 31 -3 41 -6 17 -5 17 -5 1 6
-18 11 -26 36 -9 25 5 -3 12 -2 15 3 3 4 -13 9 -34 10 -34 2 -39 0 -37 -18z"/>
<path d="M2861 2076 c2 -2 36 -6 74 -9 46 -4 65 -3 55 3 -14 9 -139 15 -129 6z"/>
<path d="M2790 1989 c-7 -11 -10 -22 -8 -24 3 -3 155 -45 164 -45 3 0 2 5 -1
10 -4 6 -11 7 -17 4 -7 -4 -9 6 -6 29 5 42 -2 47 -72 47 -40 0 -51 -4 -60 -21z"/>
<path d="M2980 1941 l-15 -33 -78 5 c-53 3 -82 10 -90 20 -7 8 -23 18 -36 22
-21 6 -20 3 11 -24 34 -29 40 -31 119 -31 46 0 90 4 97 9 8 5 12 21 10 37 l-3
29 -15 -34z"/>
<path d="M740 1895 c0 -17 -2 -18 -11 -5 -9 13 -10 13 -6 0 2 -8 10 -14 16
-12 7 1 12 -15 13 -40 l1 -43 4 38 c5 41 6 42 32 25 14 -9 23 -8 42 5 23 17
23 17 -23 17 -34 0 -50 5 -57 18 -10 16 -10 15 -11 -3z"/>
<path d="M1065 1893 c-22 -1 -77 -5 -122 -9 l-83 -6 0 -44 0 -43 35 20 c30 18
48 21 120 18 47 -2 85 -1 85 4 0 4 12 7 28 7 21 0 24 -2 12 -10 -13 -8 -12
-10 4 -10 13 0 16 5 12 16 -12 31 3 56 29 50 13 -3 27 -2 30 4 6 10 -55 11
-150 3z"/>
<path d="M145 1841 c-5 -5 -39 -14 -74 -20 -61 -10 -79 -16 -70 -25 2 -2 38 1
78 6 54 6 83 5 103 -3 16 -6 31 -9 35 -5 3 3 -8 11 -25 17 -17 6 -32 17 -34
25 -2 10 -6 12 -13 5z"/>
<path d="M1372 1838 c-7 -7 -12 -25 -12 -41 0 -22 4 -28 16 -23 9 3 19 6 24 6
4 0 7 8 6 18 -1 12 8 18 31 20 23 2 30 7 26 18 -6 17 -74 19 -91 2z"/>
<path d="M267 1833 c-13 -13 -7 -53 8 -53 18 0 20 36 3 43 -7 3 30 3 82 0 52
-3 93 -4 90 -1 -8 8 -176 18 -183 11z"/>
<path d="M2797 1800 c-5 -20 -19 -35 -53 -54 -25 -14 -48 -26 -50 -26 -2 0 -4
15 -4 34 0 29 -3 33 -20 29 -25 -7 -29 -68 -4 -77 10 -4 13 -2 8 6 -5 8 -2 9
10 5 18 -7 68 14 98 41 14 12 34 13 104 8 47 -4 92 -10 100 -13 8 -3 14 1 14
11 0 11 -10 16 -32 17 -18 1 -37 2 -43 4 -5 1 -26 3 -46 3 -19 1 -45 11 -56
21 -21 20 -21 20 -26 -9z"/>
<path d="M1170 1805 c0 -12 -17 -15 -89 -15 -75 0 -92 -3 -112 -21 l-24 -20
120 6 c66 4 122 11 123 16 2 5 10 9 18 9 8 0 14 9 14 20 0 15 -7 20 -25 20
-16 0 -25 -6 -25 -15z"/>
<path d="M1445 1799 l-30 -20 60 7 c67 7 70 8 60 23 -10 17 -57 12 -90 -10z"/>
<path d="M1961 1795 c-12 -14 -26 -23 -30 -21 -7 4 -103 -16 -132 -29 -12 -4
-18 1 -23 20 -5 19 -11 25 -22 21 -9 -3 -20 -6 -25 -6 -5 0 -9 -11 -9 -24 0
-13 -6 -27 -12 -30 -7 -4 -2 -3 12 0 14 4 39 6 55 6 34 0 206 37 216 47 4 3 4
14 0 23 -5 15 -9 14 -30 -7z"/>
<path d="M880 1785 c-14 -8 -33 -14 -42 -15 -23 0 -33 -19 -13 -26 9 -4 21 0
28 9 7 8 26 22 42 31 17 8 26 15 20 15 -5 0 -21 -6 -35 -14z"/>
<path d="M1215 1754 c-124 -10 -126 -11 -45 -11 103 -1 223 10 195 17 -11 3
-78 0 -150 -6z"/>
<path d="M0 1729 c0 -8 18 -10 58 -6 l57 5 -58 -20 c-32 -11 -56 -22 -53 -25
2 -3 34 5 69 16 36 12 70 21 77 19 7 -2 15 3 17 10 4 9 -17 12 -81 12 -58 0
-86 -4 -86 -11z"/>
<path d="M980 1690 c0 -35 8 -37 38 -10 12 12 22 16 22 10 0 -5 5 -10 10 -10
6 0 10 9 10 20 0 17 -7 20 -40 20 -38 0 -40 -2 -40 -30z"/>
<path d="M2599 1695 c-3 -2 -23 -7 -45 -11 -21 -3 -41 -9 -44 -13 -3 -3 -16
-8 -30 -10 -33 -4 -38 -6 -89 -20 -23 -7 -49 -10 -57 -7 -8 3 -14 1 -14 -4 0
-6 -15 -10 -34 -10 -19 0 -37 -4 -40 -9 -5 -7 -42 -14 -138 -23 -10 -1 -18 -5
-18 -8 0 -4 -6 -7 -12 -8 -19 -1 -39 -7 -71 -20 -16 -7 -38 -12 -50 -13 -12 0
-16 -3 -9 -6 27 -11 540 102 662 146 48 17 51 20 24 20 -17 1 -33 -1 -35 -4z"/>
<path d="M1300 1680 c0 -13 60 -13 80 0 11 7 2 10 -32 10 -27 0 -48 -4 -48
-10z"/>
<path d="M866 1663 c-4 -4 -41 -8 -84 -8 -96 -2 -98 -3 -86 -15 5 -5 58 -7
132 -3 68 3 119 9 115 13 -12 11 -70 20 -77 13z"/>
<path d="M1944 1639 c-38 -9 -42 -13 -47 -46 -4 -20 -4 -39 -2 -43 3 -4 25 -3
50 3 45 10 45 11 45 54 0 24 -1 43 -2 42 -2 -1 -22 -5 -44 -10z"/>
<path d="M310 1600 c0 -18 7 -20 68 -20 161 0 312 13 312 27 0 10 -37 13 -190
13 -183 0 -190 -1 -190 -20z"/>
<path d="M2905 1510 c-66 -32 -81 -36 -88 -24 -11 19 -57 19 -57 0 0 -8 -9
-18 -20 -21 -11 -4 -18 -10 -15 -15 6 -9 -149 -39 -224 -43 -50 -2 -56 -5 -70
-34 -9 -17 -25 -33 -36 -36 -11 -3 -90 -21 -175 -41 -85 -21 -166 -39 -180
-41 -14 -2 -45 -12 -70 -23 -83 -35 -182 -55 -285 -56 -72 -1 -484 -50 -502
-60 0 -1 -4 -23 -9 -51 -6 -45 -5 -49 9 -37 9 8 21 11 27 7 11 -7 242 24 615
82 127 20 245 38 263 41 17 2 32 7 32 11 0 12 -63 31 -74 22 -11 -8 -126 -23
-126 -16 0 8 95 46 127 51 22 3 47 -3 84 -21 l52 -27 101 17 c131 21 697 134
708 141 14 9 9 24 -9 24 -9 0 -39 -7 -67 -15 -28 -8 -81 -23 -118 -34 l-68
-19 1 31 c2 64 27 111 61 113 25 2 29 3 136 46 54 22 72 35 72 49 0 24 0 24
-95 -21z m-180 -149 c-4 -22 -12 -44 -18 -49 -7 -5 -41 -14 -77 -20 -36 -5
-110 -22 -165 -37 -55 -14 -109 -28 -120 -30 -11 -1 -50 -8 -88 -15 -60 -11
-70 -10 -93 5 -14 9 -22 20 -18 25 12 10 177 50 207 50 14 0 30 7 37 15 7 8
18 15 24 15 7 0 27 11 46 25 21 15 48 25 69 25 20 0 72 9 116 19 44 10 82 17
83 15 2 -1 1 -21 -3 -43z m-996 -212 c66 -2 51 -13 -45 -33 -38 -8 -77 -18
-86 -21 -10 -4 -18 -3 -18 3 0 6 -28 4 -72 -5 -129 -25 -282 -43 -291 -34 -18
18 4 30 71 37 37 4 69 8 72 9 3 0 59 9 125 20 66 10 124 21 128 25 4 4 20 6
35 4 15 -2 51 -4 81 -5z"/>
<path d="M1792 1528 c-4 -3 -36 -9 -72 -12 -36 -4 -78 -9 -95 -11 -16 -2 -50
-6 -75 -9 -25 -2 -62 -7 -82 -11 -27 -4 -38 -3 -38 6 0 8 -5 8 -17 -3 -10 -8
-36 -15 -58 -16 -22 -1 -57 -5 -77 -8 -26 -4 -38 -2 -38 6 0 7 -6 5 -16 -4
-15 -16 -49 -23 -41 -8 3 4 -5 7 -18 7 -13 0 -21 -3 -19 -6 3 -6 -41 -11 -114
-13 -23 -1 -42 -3 -42 -6 0 -3 -27 -6 -59 -7 l-60 -2 -4 37 -4 37 -1 -40 -2
-40 -88 -2 c-94 -2 -118 -5 -202 -23 -38 -8 -92 -9 -177 -3 -68 5 -123 6 -123
3 0 -3 -59 -6 -132 -6 -94 0 -133 -3 -136 -12 -11 -33 847 10 1368 68 249 28
560 72 560 79 0 8 -129 8 -138 -1z"/>
<path d="M430 1464 l0 -56 72 4 72 3 3 53 3 52 -75 0 -75 0 0 -56z m113 26
c16 0 18 -3 9 -9 -8 -4 -13 -11 -13 -15 3 -20 -1 -26 -18 -26 -11 0 -23 9 -27
22 l-6 21 -13 -22 c-10 -20 -13 -21 -18 -6 -4 9 -7 20 -7 25 0 10 39 19 58 14
8 -2 23 -4 35 -4z"/>
<path d="M2036 1342 c-8 -25 -64 -84 -75 -78 -4 3 -70 -6 -145 -19 -144 -26
-614 -94 -663 -96 -22 -1 -24 -3 -6 -6 37 -7 650 81 792 113 25 6 26 6 6 -10
-19 -16 -19 -16 10 -4 17 6 44 22 62 35 40 29 52 30 27 2 -19 -22 -19 -22 2
-11 12 6 29 23 39 38 17 26 17 28 -1 41 -25 18 -42 16 -48 -5z"/>
<path d="M775 1235 c-60 -8 -201 -19 -313 -24 -264 -12 -278 -20 -281 -143 -1
-39 -4 -48 -18 -48 -14 0 -18 9 -18 42 l0 43 -46 -1 c-27 0 -58 -8 -74 -18
-26 -17 -27 -19 -9 -29 10 -6 23 -15 27 -21 6 -7 7 -4 3 6 -4 13 3 22 24 33
35 18 50 20 28 3 -9 -7 -18 -24 -20 -38 -2 -20 -9 -25 -30 -25 -16 -1 -33 -6
-40 -13 -9 -9 -4 -12 23 -12 25 0 43 7 58 24 23 24 23 25 44 5 11 -10 27 -19
34 -19 15 0 52 73 53 102 0 25 36 55 73 62 18 3 93 6 167 7 120 1 190 7 310
23 160 23 234 16 246 -21 4 -10 15 -37 26 -60 30 -64 23 -77 -42 -83 -30 -3
-60 -9 -67 -13 -6 -4 -13 -2 -15 4 -3 9 -9 9 -26 0 -15 -8 -22 -8 -22 -1 0 7
-6 7 -21 0 -11 -7 -23 -9 -26 -6 -3 2 -17 0 -32 -5 -14 -6 -39 -12 -56 -14
-16 -2 -68 -10 -115 -18 -112 -20 -251 -39 -295 -40 -19 -1 -35 -5 -35 -9 0
-11 16 -10 190 12 85 10 207 24 270 30 63 5 128 13 144 16 l29 6 -6 -61 c-4
-38 -3 -61 3 -61 6 0 10 26 10 59 0 66 -11 58 108 76 46 7 47 9 57 68 3 21 10
35 14 33 4 -3 21 -1 37 3 l29 8 -28 8 c-20 5 -33 3 -46 -9 -26 -23 -29 -21
-37 30 -11 72 -37 95 -114 99 -36 2 -114 -2 -175 -10z"/>
<path d="M2955 1220 c-18 -8 -18 -9 5 -10 l25 -1 -25 -10 c-17 -7 -26 -7 -28
0 -2 6 -8 11 -13 11 -6 0 -7 -5 -4 -10 8 -14 -9 -19 -75 -24 -30 -2 -55 -5
-55 -6 0 -1 -20 -4 -44 -6 -24 -3 -93 -16 -154 -30 -60 -13 -118 -24 -129 -24
-10 0 -18 -4 -18 -9 0 -4 12 -6 28 -3 15 2 25 2 22 -1 -5 -5 -335 -71 -410
-82 -57 -8 -49 0 21 20 l54 15 -55 -6 c-30 -4 -152 -26 -270 -49 -118 -24
-236 -46 -263 -50 -26 -4 -51 -14 -56 -22 -6 -11 -10 -12 -15 -4 -4 6 -13 11
-19 11 -7 0 -6 -4 3 -11 11 -8 3 -9 -30 -5 -25 3 -117 -6 -205 -19 -88 -13
-191 -26 -230 -30 -123 -11 -148 -15 -270 -35 -167 -27 -179 -30 -105 -23 144
12 194 13 185 4 -10 -9 -414 -66 -722 -102 -57 -7 -103 -16 -103 -22 0 -11 16
-9 345 34 439 58 721 99 1155 170 430 70 982 178 1300 255 58 14 114 27 125
28 52 8 75 19 75 37 0 20 -13 23 -45 9z m-1267 -276 c-10 -9 -118 -21 -118
-13 0 8 36 14 94 17 16 1 27 -1 24 -4z"/>
<path d="M1760 1204 l-65 -13 60 5 c66 5 142 23 95 22 -14 0 -54 -6 -90 -14z"/>
<path d="M2835 1114 c-44 -14 -88 -23 -97 -20 -16 4 -18 -7 -18 -114 0 -66 4
-121 8 -124 10 -6 201 49 214 62 5 5 7 56 6 113 -2 83 -6 104 -18 106 -8 1
-51 -9 -95 -23z m97 -91 c-3 -66 -6 -73 -25 -73 -20 0 -20 -1 -2 -14 17 -12
16 -14 -11 -21 -33 -10 -34 -10 -54 -18 -8 -3 -22 -6 -30 -6 -8 0 -27 -3 -42
-7 l-28 -6 0 90 0 91 38 10 c113 29 148 37 152 32 3 -3 4 -39 2 -78z"/>
<path d="M2871 1061 c-11 -7 -12 -20 -4 -67 l10 -59 2 62 c1 50 4 62 19 66 12
3 13 5 2 6 -8 0 -21 -3 -29 -8z"/>
<path d="M150 982 c0 -18 -52 -74 -59 -63 -4 6 -12 1 -20 -11 -11 -18 -11 -20
4 -14 9 3 27 6 40 6 18 0 25 8 33 42 6 23 9 44 6 47 -2 2 -4 -1 -4 -7z"/>
<path d="M177 967 c-4 -10 -7 -30 -7 -44 0 -19 4 -24 16 -19 9 3 33 6 55 6 52
0 50 18 -3 22 -36 3 -43 7 -48 28 -5 22 -7 23 -13 7z"/>
<path d="M2946 865 c-2 -5 -25 -16 -52 -23 -27 -8 -60 -17 -74 -22 -14 -4 -45
-13 -70 -20 -25 -7 -56 -16 -70 -21 -14 -4 -54 -15 -90 -24 -36 -9 -75 -22
-87 -27 -12 -6 -36 -11 -52 -12 -17 -1 -31 -4 -31 -8 0 -6 -19 -12 -79 -23
-13 -2 -46 -12 -72 -20 -27 -9 -53 -14 -59 -10 -5 3 -10 2 -10 -3 0 -6 -29
-15 -64 -21 -35 -6 -80 -18 -100 -26 -20 -9 -36 -13 -36 -10 0 3 -8 1 -17 -4
-10 -5 -34 -12 -53 -15 -53 -9 -84 -15 -152 -32 -5 -1 -9 -3 -10 -4 -2 -1 -12
-4 -23 -6 -11 -1 -31 -5 -45 -9 -14 -3 -56 -12 -95 -21 -38 -8 -88 -19 -110
-25 -22 -5 -52 -12 -68 -14 -15 -3 -39 -7 -55 -11 -15 -3 -36 -7 -47 -9 -89
-17 -143 -29 -161 -37 -12 -6 -39 -12 -60 -14 -46 -5 -138 -20 -174 -29 -14
-4 -37 -8 -51 -10 -14 -2 -38 -9 -52 -14 -20 -8 -27 -7 -27 2 0 8 -3 9 -8 1
-10 -15 -42 -25 -42 -14 0 6 -7 7 -17 1 -22 -11 -105 -30 -153 -35 -19 -2 -49
-8 -67 -14 -17 -6 -34 -8 -37 -5 -3 3 -13 2 -23 -2 -10 -4 -25 -9 -33 -11 -8
-1 -58 -11 -110 -22 -52 -11 -123 -22 -158 -25 -34 -4 -66 -8 -71 -11 -4 -3
-23 -8 -42 -11 -37 -7 -46 -12 -36 -21 4 -4 46 0 94 9 49 9 165 30 258 47 453
82 1012 196 1447 296 488 112 1185 310 1195 340 4 12 -46 12 -51 -1z"/>
</g>
</svg>
