<?xml version="1.0" standalone="no"?>
<!DOCTYPE svg PUBLIC "-//W3C//DTD SVG 20010904//EN"
 "http://www.w3.org/TR/2001/REC-SVG-20010904/DTD/svg10.dtd">
<svg version="1.0" xmlns="http://www.w3.org/2000/svg"
 width="300.000000pt" height="300.000000pt" viewBox="0 0 300.000000 300.000000"
 preserveAspectRatio="xMidYMid meet">
<metadata>
Created by potrace 1.10, written by Peter Selinger 2001-2011
</metadata>
<g transform="translate(0.000000,300.000000) scale(0.100000,-0.100000)"
fill="#000000" stroke="none">
<path d="M1348 2087 c-119 -100 -217 -185 -217 -189 -1 -11 47 -10 51 1 2 4
88 81 193 169 162 138 192 159 205 148 236 -200 359 -307 365 -315 7 -12 55
-15 54 -3 0 6 -252 221 -402 344 l-33 27 -216 -182z"/>
<path d="M1509 2061 c-40 -40 -39 -82 1 -123 26 -25 36 -29 63 -24 42 9 66 34
74 79 5 31 1 40 -25 67 -39 39 -74 39 -113 1z m101 -11 c41 -41 12 -120 -45
-120 -55 0 -87 80 -48 122 21 24 68 23 93 -2z"/>
<path d="M1556 2035 c4 -18 1 -32 -11 -45 -19 -21 -7 -28 13 -8 15 15 16 78 2
78 -6 0 -8 -11 -4 -25z"/>
<path d="M1272 1844 c-20 -14 -22 -23 -22 -112 l0 -97 60 0 60 -1 0 98 c0 89
-2 98 -22 112 -12 9 -29 16 -38 16 -9 0 -26 -7 -38 -16z m49 -34 c16 -9 19
-22 19 -76 l0 -65 -27 3 c-27 3 -28 6 -31 66 -2 40 1 62 8 62 6 0 8 5 5 10 -8
13 1 13 26 0z"/>
<path d="M1442 1844 c-20 -14 -22 -23 -22 -112 l0 -97 60 0 60 0 0 97 c0 89
-2 98 -22 112 -12 9 -29 16 -38 16 -9 0 -26 -7 -38 -16z m68 -104 l0 -70 -30
0 -30 0 0 68 c0 74 12 97 42 81 15 -8 18 -22 18 -79z"/>
<path d="M1612 1844 c-20 -14 -22 -23 -22 -113 l0 -97 60 0 60 0 0 98 c0 89
-2 98 -22 112 -12 9 -29 16 -38 16 -9 0 -26 -7 -38 -16z m54 -36 c4 -7 9 -38
10 -69 3 -50 1 -59 -16 -64 -11 -3 -24 -3 -30 0 -14 8 -13 125 1 125 5 0 7 5
4 10 -3 6 1 10 9 10 8 0 18 -5 22 -12z"/>
<path d="M1777 1842 c-13 -15 -17 -39 -17 -114 l0 -96 60 1 60 1 0 93 c0 80
-3 96 -20 113 -25 25 -62 26 -83 2z m63 -32 c6 -11 10 -46 8 -78 -3 -54 -4
-57 -30 -60 l-28 -3 0 68 c0 85 25 120 50 73z"/>
<path d="M334 1738 c-15 -35 -30 -65 -31 -68 -2 -3 195 -5 437 -5 l440 0 0 68
0 67 -409 0 -408 0 -29 -62z m452 23 c315 -1 353 -3 358 -17 16 -43 3 -44
-400 -44 -211 0 -384 3 -384 6 0 3 8 19 17 35 12 20 23 27 37 24 12 -2 179 -4
372 -4z"/>
<path d="M1950 1733 l0 -68 440 0 c242 0 439 2 438 5 -2 3 -16 33 -32 68 l-29
62 -408 0 -409 0 0 -67z m802 7 c10 -12 15 -26 12 -31 -3 -5 -173 -9 -389 -9
-331 0 -384 2 -389 15 -3 8 -3 22 0 30 7 18 53 20 439 18 305 -1 310 -2 327
-23z"/>
<path d="M347 1623 c-4 -3 -7 -130 -7 -282 0 -178 3 -272 10 -265 9 9 16 541
7 550 -2 2 -7 1 -10 -3z"/>
<path d="M2768 1463 c-4 -234 1 -393 12 -393 13 0 13 547 0 555 -5 3 -10 -59
-12 -162z"/>
<path d="M430 1590 c-18 -18 -20 -31 -18 -112 l3 -91 60 0 59 1 -1 97 c-1 81
-5 99 -20 111 -26 19 -60 17 -83 -6z m75 -76 c9 -73 1 -96 -33 -92 -26 3 -27
5 -27 71 0 47 4 70 14 76 26 16 39 0 46 -55z"/>
<path d="M627 1592 c-12 -13 -16 -41 -18 -111 l-2 -93 59 -1 59 0 3 91 c2 81
0 94 -18 112 -25 25 -62 26 -83 2z m68 -97 c0 -69 0 -70 -27 -73 -16 -2 -28 0
-29 5 -1 14 -1 117 0 131 1 8 11 12 29 10 27 -3 27 -4 27 -73z"/>
<path d="M822 1594 c-20 -14 -22 -23 -22 -112 l0 -97 60 0 60 0 0 96 c0 80 -3
99 -18 112 -23 21 -51 22 -80 1z m50 -26 c16 -14 32 -62 17 -52 -5 3 -5 -4 0
-18 13 -35 -11 -88 -36 -82 -16 4 -20 16 -22 56 -2 55 6 108 18 108 4 0 14 -6
23 -12z"/>
<path d="M1014 1596 c-16 -12 -20 -29 -22 -109 l-4 -95 62 -4 c43 -2 64 1 67
9 3 7 3 51 2 99 -3 71 -7 88 -23 100 -25 18 -57 18 -82 0z m67 -40 c0 -6 3
-29 5 -51 7 -60 -2 -85 -31 -85 -14 0 -26 6 -26 13 -1 6 -3 27 -5 45 -5 45 20
104 40 96 9 -3 16 -11 17 -18z"/>
<path d="M2030 1590 c-18 -18 -20 -31 -18 -111 l3 -91 63 -1 64 -2 -4 98 c-2
84 -6 101 -22 113 -28 20 -63 17 -86 -6z m48 -6 c-4 -3 1 -13 11 -23 26 -26
28 -126 3 -140 -31 -16 -44 2 -47 68 -1 33 1 61 5 61 4 0 10 9 13 20 3 11 9
20 13 20 4 0 5 -3 2 -6z"/>
<path d="M2227 1592 c-13 -15 -17 -39 -17 -113 l0 -94 60 0 60 0 0 90 c0 66
-4 97 -16 113 -19 27 -64 29 -87 4z m59 -26 c9 -10 14 -37 14 -79 0 -67 -7
-78 -42 -69 -15 4 -18 16 -18 76 0 88 12 106 46 72z"/>
<path d="M2422 1594 c-20 -14 -22 -23 -22 -110 l0 -94 55 0 c30 0 58 -1 61 -2
4 -2 6 40 5 92 -2 70 -6 99 -18 112 -20 22 -51 23 -81 2z m69 -46 c1 -13 2
-42 3 -66 2 -53 -5 -65 -35 -60 -22 3 -24 8 -27 62 -4 73 1 86 33 86 19 0 25
-5 26 -22z"/>
<path d="M2614 1596 c-16 -13 -19 -27 -19 -111 l0 -97 60 0 60 0 0 97 c0 84
-3 98 -19 111 -11 8 -29 14 -41 14 -12 0 -30 -6 -41 -14z m55 -25 c22 -14 28
-133 8 -149 -20 -17 -47 -5 -48 22 0 11 -2 35 -3 51 -3 32 12 85 22 85 4 0 14
-4 21 -9z"/>
<path d="M1200 1500 l0 -100 365 0 365 0 0 100 0 100 -365 0 -365 0 0 -100z
m706 0 l-1 -71 -340 0 -340 0 -1 71 -1 70 342 0 342 0 -1 -70z"/>
<path d="M1257 1508 c8 -44 19 -55 41 -42 18 12 24 64 7 64 -5 -1 -9 -12 -7
-25 2 -14 -1 -25 -7 -25 -6 0 -11 14 -11 30 0 20 -5 30 -15 30 -11 0 -13 -8
-8 -32z"/>
<path d="M1334 1500 c0 -23 6 -40 12 -40 7 0 10 9 7 23 -5 21 -4 21 16 -3 11
-14 21 -23 22 -20 6 23 4 80 -3 80 -4 0 -8 -10 -9 -22 l0 -23 -16 23 c-22 32
-31 27 -29 -18z"/>
<path d="M1410 1500 c0 -28 4 -40 14 -40 11 0 13 9 9 35 -3 19 -3 35 1 35 3 0
12 -16 20 -35 17 -41 31 -45 40 -11 3 13 9 31 12 40 4 11 1 16 -10 16 -11 0
-16 -9 -16 -27 0 -21 -3 -24 -9 -14 -5 8 -7 20 -4 28 4 9 -4 13 -26 13 -30 0
-31 -2 -31 -40z"/>
<path d="M1524 1500 c1 -35 4 -40 23 -40 14 0 23 6 23 15 0 9 -6 12 -17 9 -15
-5 -16 -4 -3 5 12 9 13 12 1 20 -9 6 -5 9 14 9 24 0 26 -3 21 -29 -4 -21 -2
-29 9 -29 9 0 12 6 9 15 -4 8 -2 15 4 15 5 0 12 -6 15 -13 7 -19 67 -20 74 -1
3 8 -3 22 -13 30 -18 15 -18 15 -1 10 12 -4 17 -2 15 6 -7 20 -37 22 -44 3 -4
-9 1 -22 12 -31 17 -14 17 -15 2 -10 -10 3 -18 0 -18 -6 0 -6 -3 -8 -7 -4 -4
4 -7 19 -8 34 0 26 -2 27 -56 29 l-56 2 1 -39z"/>
<path d="M1713 1500 c1 -27 6 -40 15 -40 9 0 12 6 8 16 -3 9 -6 27 -6 40 0 13
-4 24 -9 24 -6 0 -9 -18 -8 -40z"/>
<path d="M1740 1529 c0 -5 5 -9 10 -9 6 0 10 -13 10 -30 0 -20 5 -30 15 -30
11 0 13 7 9 28 -5 23 -2 28 16 29 16 1 22 -5 27 -28 3 -16 12 -29 20 -29 9 0
12 6 8 19 -3 10 1 24 10 31 19 16 19 30 1 30 -8 0 -17 -8 -19 -17 -4 -15 -5
-15 -6 -2 -1 12 -13 16 -51 16 -27 1 -50 -3 -50 -8z"/>
<path d="M1160 1380 c0 -11 5 -20 10 -20 6 0 10 -7 10 -15 0 -12 14 -15 65
-15 51 0 65 3 65 15 0 12 -14 15 -66 15 -61 0 -65 1 -59 20 5 14 2 20 -9 20
-9 0 -16 -9 -16 -20z"/>
<path d="M1945 1379 c7 -20 5 -21 -67 -14 -140 12 -541 16 -552 5 -7 -7 68
-10 242 -10 217 0 252 -2 252 -15 0 -12 14 -15 65 -15 51 0 65 3 65 15 0 8 5
15 10 15 6 0 10 9 10 20 0 11 -7 20 -16 20 -11 0 -14 -6 -9 -21z"/>
<path d="M435 1304 c-17 -13 -20 -29 -23 -114 l-4 -100 30 0 c41 0 63 10 55
24 -4 6 4 4 18 -5 l25 -17 -4 97 c-4 103 -17 131 -56 131 -12 0 -30 -7 -41
-16z m68 -67 c-4 -18 -3 -20 7 -7 10 13 11 12 5 -5 -4 -11 -8 -33 -9 -50 -1
-21 -6 -30 -18 -29 -11 1 -15 -5 -13 -18 4 -20 3 -20 -15 -3 -15 14 -18 29
-17 81 1 45 7 68 17 74 21 13 49 -15 43 -43z"/>
<path d="M631 1303 c-18 -16 -21 -30 -22 -113 l-2 -95 62 -3 61 -3 0 96 c0 82
-3 98 -20 115 -25 25 -51 25 -79 3z m64 -43 c3 -10 5 -44 4 -75 -2 -54 -3 -55
-33 -55 l-31 0 0 63 c0 34 4 68 8 75 12 19 45 14 52 -8z"/>
<path d="M820 1300 c-17 -17 -20 -33 -20 -115 l0 -95 60 0 60 0 0 95 c0 82 -3
98 -20 115 -11 11 -29 20 -40 20 -11 0 -29 -9 -40 -20z m65 -32 c2 -7 6 -36 8
-65 6 -64 -6 -82 -48 -72 -16 3 -25 7 -19 8 7 1 9 16 4 46 -4 25 -3 45 2 45 5
0 6 5 3 10 -11 18 3 40 25 40 11 0 23 -6 25 -12z"/>
<path d="M1011 1294 c-18 -23 -21 -41 -21 -115 l0 -89 66 0 66 0 -4 100 c-3
85 -6 101 -23 114 -30 23 -61 19 -84 -10z m74 -68 c11 -83 1 -108 -36 -99 -24
7 -33 41 -26 94 11 84 52 87 62 5z"/>
<path d="M1200 1185 c0 -83 4 -135 10 -135 6 0 10 52 10 135 0 83 -4 135 -10
135 -6 0 -10 -52 -10 -135z"/>
<path d="M1244 1185 c0 -77 2 -107 3 -67 2 40 2 103 0 140 -2 37 -3 4 -3 -73z"/>
<path d="M1270 1179 c0 -91 4 -138 10 -134 6 4 10 62 10 141 0 83 -4 134 -10
134 -6 0 -10 -54 -10 -141z"/>
<path d="M1840 1180 c0 -87 4 -140 10 -140 6 0 10 53 10 140 0 87 -4 140 -10
140 -6 0 -10 -53 -10 -140z"/>
<path d="M1884 1185 c0 -77 2 -107 3 -67 2 40 2 103 0 140 -2 37 -3 4 -3 -73z"/>
<path d="M1910 1185 c0 -83 4 -135 10 -135 6 0 10 52 10 135 0 83 -4 135 -10
135 -6 0 -10 -52 -10 -135z"/>
<path d="M2035 1304 c-18 -13 -20 -27 -20 -112 l0 -97 63 -3 62 -3 0 91 c0 83
-2 93 -25 115 -28 28 -51 31 -80 9z m55 -40 c0 -8 3 -13 8 -10 4 2 9 -24 10
-60 l3 -64 -33 0 -34 0 -1 55 c0 35 3 52 10 48 6 -3 7 -1 3 6 -4 7 -5 18 -2
26 7 20 36 19 36 -1z"/>
<path d="M2233 1305 c-20 -14 -22 -26 -25 -120 -2 -58 1 -106 5 -108 5 -1 6
-9 2 -17 -4 -12 -27 -14 -131 -12 -87 2 -124 0 -119 -7 4 -7 50 -11 119 -11
l113 0 -2 -35 c-2 -19 1 -32 6 -29 5 3 9 17 9 32 0 32 14 57 27 49 12 -8 13
24 2 39 -7 8 5 10 41 6 l50 -5 0 97 c0 83 -3 99 -20 116 -24 24 -48 25 -77 5z
m61 -107 c1 -69 0 -73 -21 -72 -13 0 -24 -4 -25 -10 -1 -6 -4 21 -7 59 -5 60
-3 73 13 93 29 33 40 14 40 -70z"/>
<path d="M2420 1300 c-17 -17 -20 -33 -20 -113 l0 -92 60 -1 60 -1 0 98 c0 90
-2 99 -22 113 -30 21 -54 20 -78 -4z m75 -104 c1 -36 -1 -63 -6 -60 -5 3 -9 0
-9 -6 0 -6 -10 -10 -22 -8 -21 3 -23 8 -23 76 0 54 4 75 15 82 27 16 43 -14
45 -84z"/>
<path d="M2615 1300 c-15 -17 -20 -40 -22 -115 l-3 -95 65 0 65 0 0 95 c0 84
-2 96 -22 115 -28 26 -60 26 -83 0z m69 -42 c3 -13 6 -36 6 -53 0 -53 -11 -75
-35 -75 -15 0 -26 8 -30 21 -7 20 2 106 12 122 10 16 41 6 47 -15z"/>
<path d="M1517 1276 c-83 -30 -97 -60 -97 -216 l0 -120 -39 0 c-22 0 -46 -3
-55 -6 -13 -5 -16 2 -16 45 l0 51 -65 0 -65 0 0 -40 c0 -22 5 -40 10 -40 8 0
15 28 12 51 -2 12 58 16 68 4 5 -6 11 -27 12 -46 2 -24 10 -38 27 -46 52 -28
130 -6 131 37 2 83 10 184 15 203 5 17 4 19 -4 7 -8 -11 -11 -11 -11 -2 0 7 7
15 15 18 8 4 15 12 15 19 0 17 29 40 68 53 53 18 118 -19 138 -79 4 -13 8 -67
10 -119 3 -129 3 -130 20 -130 8 0 14 -4 14 -8 0 -4 18 -9 40 -10 39 -3 95 22
85 38 -7 11 15 70 26 71 5 1 16 2 24 2 28 0 31 -3 32 -24 1 -12 7 -27 12 -32
8 -8 11 2 11 34 l0 44 -65 -3 -65 -4 0 -47 0 -46 -52 1 -53 2 -5 129 c-6 147
-19 179 -90 207 -48 19 -54 19 -103 2z"/>
<path d="M485 1078 c-15 -49 -12 -70 11 -78 14 -6 24 -19 27 -37 2 -15 4 -8 3
17 -1 25 -5 50 -9 57 -4 6 -1 13 5 16 10 3 10 7 -1 20 -16 20 -30 22 -36 5z"/>
<path d="M2430 1070 c0 -5 5 -10 11 -10 5 0 15 -14 21 -30 5 -17 15 -29 21
-27 19 6 18 23 -3 50 -21 27 -50 36 -50 17z"/>
<path d="M340 1029 c0 -49 16 -68 23 -30 5 26 11 31 35 31 15 0 32 -4 38 -10
6 -6 10 -3 10 10 0 16 -7 20 -37 20 -21 0 -44 3 -53 6 -13 5 -16 -1 -16 -27z"/>
<path d="M873 1052 c-110 -3 -126 -22 -19 -22 43 0 78 -5 81 -11 5 -6 13 -2
22 11 8 12 13 22 12 23 -2 1 -46 1 -96 -1z"/>
<path d="M2653 1053 c-158 -5 -164 -23 -8 -23 63 0 114 -3 113 -7 -3 -15 14
-43 23 -37 11 6 12 75 2 72 -5 -1 -63 -4 -130 -5z"/>
<path d="M560 1041 c0 -7 32 -11 85 -11 47 0 85 4 85 9 0 4 -38 9 -85 10 -54
1 -85 -2 -85 -8z"/>
<path d="M1030 1035 c0 -10 -10 -15 -30 -15 -39 0 -62 -39 -38 -67 15 -19 28
-6 28 29 0 27 2 30 25 24 18 -5 25 -2 25 7 0 10 16 14 57 16 87 3 91 21 5 21
-57 0 -72 -3 -72 -15z"/>
<path d="M2270 1040 c20 -13 163 -13 155 0 -3 6 -43 10 -88 10 -57 0 -77 -3
-67 -10z"/>
<path d="M737 1023 c-4 -3 -7 -23 -7 -44 l0 -38 -87 -3 c-59 -2 -88 -7 -91
-16 -3 -10 13 -11 76 -7 68 5 81 3 86 -11 3 -8 4 -20 1 -24 -9 -14 16 -26 58
-29 15 -1 28 -10 35 -26 14 -30 -3 -35 -24 -7 -12 15 -13 15 -14 1 0 -23 24
-41 44 -33 18 7 20 18 6 44 -5 10 -12 34 -14 54 l-5 37 82 -3 c101 -3 114 -12
92 -64 -8 -20 -14 -39 -11 -41 2 -2 9 10 16 27 7 16 16 30 20 30 4 0 7 11 6
25 -1 32 -31 41 -143 44 -71 2 -83 0 -83 -14 0 -12 -8 -15 -27 -13 -28 3 -31
23 -3 23 11 0 16 13 18 48 2 35 -1 47 -11 47 -7 0 -17 -3 -20 -7z"/>
<path d="M2258 990 c3 -21 8 -28 14 -22 12 12 7 44 -8 49 -7 2 -9 -8 -6 -27z"/>
<path d="M478 963 c-3 -27 -4 -28 -70 -28 -58 0 -68 3 -68 18 0 13 -8 17 -36
17 -28 0 -44 -8 -70 -34 -29 -29 -34 -41 -34 -81 0 -42 5 -52 39 -86 l39 -39
1277 0 c1161 0 1280 1 1311 16 103 49 71 224 -41 224 -27 0 -35 -4 -35 -17 0
-17 -13 -18 -160 -16 -100 2 -160 -1 -160 -7 0 -6 7 -10 16 -10 12 0 15 -7 11
-27 -6 -27 11 -93 23 -93 4 0 5 24 3 53 -2 38 1 54 10 55 6 0 66 3 132 6 66 3
133 9 150 14 25 7 33 4 52 -19 23 -27 31 -82 15 -105 -24 -36 -34 -37 -981
-39 -572 -1 -931 2 -938 8 -7 5 -13 6 -13 1 0 -14 -651 -10 -677 4 -24 13 -37
55 -29 96 8 43 27 55 82 49 27 -3 65 -6 86 -7 33 -1 69 -16 39 -16 -7 0 -9 -5
-6 -10 4 -6 14 -1 25 12 16 20 21 21 39 10 18 -10 21 -10 21 3 0 8 -9 15 -20
15 -16 0 -19 5 -14 24 3 13 1 27 -5 30 -5 4 -11 -6 -13 -21z"/>
<path d="M1025 929 c-4 -6 -4 -13 -1 -17 10 -9 46 -10 40 0 -3 4 25 9 63 9 63
1 65 2 28 10 -57 11 -123 11 -130 -2z"/>
<path d="M1955 931 c-24 -6 -15 -9 47 -15 43 -5 89 -6 103 -4 14 3 25 2 25 -1
0 -4 18 -7 40 -7 22 0 40 3 40 8 0 4 7 8 16 8 8 0 12 -4 9 -10 -3 -5 5 -25 19
-43 15 -19 26 -39 26 -46 0 -7 4 -10 9 -6 6 3 2 23 -9 47 -10 23 -17 45 -15
48 5 8 76 5 96 -4 12 -5 16 -19 14 -52 -1 -25 2 -47 6 -50 9 -5 29 59 29 94 0
12 5 22 10 22 6 0 10 5 10 10 0 14 -210 11 -227 -2 -7 -6 -13 -6 -13 -1 0 11
-192 14 -235 4z"/>
<path d="M2430 853 c-6 -16 -15 -36 -20 -45 -7 -12 -7 -18 0 -18 5 0 10 5 10
11 0 6 6 9 14 6 8 -3 16 -1 18 5 2 6 11 4 21 -6 12 -13 17 -14 17 -4 0 15 -37
78 -45 78 -3 0 -10 -12 -15 -27z"/>
</g>
</svg>
